<?xml version="1.0" encoding="utf-8"?>
<!-- Generator: Adobe Illustrator 19.2.1, SVG Export Plug-In . SVG Version: 6.00 Build 0)  -->
<svg version="1.1" id="US_UK_Download_on_the" xmlns="http://www.w3.org/2000/svg" xmlns:xlink="http://www.w3.org/1999/xlink"
	 x="0px" y="0px" viewBox="0 0 202.5 60" style="enable-background:new 0 0 202.5 60;" xml:space="preserve">
<style type="text/css">
	.st0{fill:#A6A6A6;}
	.st1{fill:#FFFFFF;}
	.st2{fill:#2E2E2E;}
</style>
<g>
	<path class="st0" d="M195.3,60H7.1C3.2,60,0,56.8,0,52.9V7.1C0,3.2,3.2,0,7.1,0h188.2c3.9,0,7.2,3.2,7.2,7.1v45.8
		C202.5,56.8,199.2,60,195.3,60L195.3,60z"/>
	<path class="st1" d="M201,52.9c0,3.2-2.6,5.7-5.8,5.7H7.1c-3.2,0-5.8-2.6-5.8-5.7V7.1c0-3.2,2.6-5.8,5.8-5.8h188.2
		c3.2,0,5.8,2.6,5.8,5.8L201,52.9L201,52.9z"/>
	<g>
		<g>
			<path class="st2" d="M45.2,29.7c0-4.8,4-7.2,4.1-7.3c-2.3-3.3-5.8-3.8-7-3.8c-3-0.3-5.8,1.8-7.3,1.8c-1.5,0-3.8-1.7-6.3-1.7
				c-3.2,0-6.2,1.9-7.9,4.8c-3.4,5.9-0.9,14.5,2.4,19.3c1.6,2.3,3.5,4.9,6,4.8c2.4-0.1,3.3-1.6,6.3-1.6c2.9,0,3.8,1.6,6.3,1.5
				c2.6,0,4.3-2.3,5.8-4.7c1.9-2.7,2.6-5.3,2.7-5.4C50.3,37.4,45.2,35.5,45.2,29.7z"/>
			<path class="st2" d="M40.4,15.5c1.3-1.6,2.2-3.9,2-6.1c-1.9,0.1-4.3,1.3-5.6,2.9c-1.2,1.4-2.3,3.7-2,5.9
				C36.8,18.3,39,17.1,40.4,15.5z"/>
		</g>
	</g>
	<g>
		<path class="st2" d="M80.5,47.3h-3.4l-1.9-5.9h-6.5l-1.8,5.9h-3.3l6.4-20h4L80.5,47.3z M74.6,38.9l-1.7-5.2
			c-0.2-0.5-0.5-1.8-1-3.8h-0.1c-0.2,0.8-0.5,2.1-0.9,3.8l-1.7,5.2H74.6z"/>
		<path class="st2" d="M97,39.9c0,2.4-0.7,4.4-2,5.8c-1.2,1.3-2.7,1.9-4.4,1.9c-1.9,0-3.3-0.7-4.1-2h-0.1v7.6h-3.2V37.6
			c0-1.5,0-3.1-0.1-4.7h2.8l0.2,2.3h0.1c1.1-1.7,2.7-2.6,4.9-2.6c1.7,0,3.1,0.7,4.2,2C96.4,35.9,97,37.7,97,39.9z M93.7,40
			c0-1.4-0.3-2.6-0.9-3.5c-0.7-0.9-1.6-1.4-2.8-1.4c-0.8,0-1.5,0.3-2.1,0.8c-0.6,0.5-1.1,1.2-1.3,2.1c-0.1,0.4-0.1,0.7-0.1,1v2.4
			c0,1,0.3,1.9,1,2.7c0.6,0.7,1.5,1.1,2.5,1.1c1.2,0,2.1-0.5,2.8-1.4C93.4,42.7,93.7,41.5,93.7,40z"/>
		<path class="st2" d="M113.5,39.9c0,2.4-0.7,4.4-2,5.8c-1.2,1.3-2.7,1.9-4.4,1.9c-1.9,0-3.3-0.7-4.1-2H103v7.6h-3.2V37.6
			c0-1.5,0-3.1-0.1-4.7h2.8l0.2,2.3h0.1c1.1-1.7,2.7-2.6,4.9-2.6c1.7,0,3.1,0.7,4.3,2C113,35.9,113.5,37.7,113.5,39.9z M110.3,40
			c0-1.4-0.3-2.6-0.9-3.5c-0.7-0.9-1.6-1.4-2.8-1.4c-0.8,0-1.5,0.3-2.1,0.8c-0.6,0.5-1.1,1.2-1.3,2.1c-0.1,0.4-0.1,0.7-0.1,1v2.4
			c0,1,0.3,1.9,1,2.7c0.6,0.7,1.5,1.1,2.5,1.1c1.2,0,2.1-0.5,2.8-1.4C110,42.7,110.3,41.5,110.3,40z"/>
		<path class="st2" d="M132.1,41.7c0,1.7-0.6,3.1-1.8,4.1c-1.3,1.2-3.1,1.7-5.4,1.7c-2.1,0-3.9-0.4-5.2-1.2l0.7-2.7
			c1.4,0.8,2.9,1.3,4.6,1.3c1.2,0,2.1-0.3,2.8-0.8c0.7-0.5,1-1.3,1-2.2c0-0.8-0.3-1.5-0.8-2c-0.6-0.6-1.5-1.1-2.8-1.5
			c-3.5-1.3-5.2-3.2-5.2-5.7c0-1.6,0.6-3,1.8-4c1.2-1,2.8-1.6,4.9-1.6c1.8,0,3.3,0.3,4.5,0.9l-0.8,2.6c-1.1-0.6-2.4-0.9-3.8-0.9
			c-1.1,0-2,0.3-2.6,0.8c-0.5,0.5-0.8,1.1-0.8,1.8c0,0.8,0.3,1.4,0.9,2c0.5,0.5,1.5,1,2.9,1.5c1.7,0.7,3,1.5,3.8,2.4
			C131.7,39.1,132.1,40.3,132.1,41.7z"/>
		<path class="st2" d="M142.6,35.3h-3.5v7c0,1.8,0.6,2.7,1.9,2.7c0.6,0,1,0,1.4-0.1l0.1,2.4c-0.6,0.2-1.5,0.4-2.5,0.4
			c-1.3,0-2.2-0.4-3-1.2c-0.7-0.8-1.1-2.1-1.1-3.9v-7.3h-2.1v-2.4h2.1v-2.6l3.1-0.9v3.6h3.5C142.6,32.9,142.6,35.3,142.6,35.3z"/>
		<path class="st2" d="M158.5,39.9c0,2.2-0.6,4-1.9,5.4c-1.3,1.5-3.1,2.2-5.3,2.2c-2.1,0-3.8-0.7-5-2.1s-1.9-3.2-1.9-5.3
			c0-2.2,0.6-4.1,1.9-5.5c1.3-1.4,3-2.1,5.2-2.1c2.1,0,3.8,0.7,5.1,2.1C157.9,36,158.5,37.8,158.5,39.9z M155.2,40
			c0-1.3-0.3-2.5-0.9-3.4c-0.7-1.1-1.6-1.7-2.9-1.7c-1.3,0-2.3,0.6-2.9,1.7c-0.6,1-0.9,2.1-0.9,3.5c0,1.3,0.3,2.5,0.9,3.4
			c0.7,1.1,1.7,1.7,2.9,1.7c1.2,0,2.2-0.6,2.9-1.8C154.9,42.5,155.2,41.4,155.2,40z"/>
		<path class="st2" d="M168.9,35.7c-0.3-0.1-0.7-0.1-1-0.1c-1.1,0-2,0.4-2.6,1.3c-0.5,0.8-0.8,1.7-0.8,2.8v7.6h-3.2l0-9.9
			c0-1.7,0-3.2-0.1-4.5h2.8l0.1,2.8h0.1c0.3-0.9,0.9-1.7,1.6-2.3c0.7-0.5,1.5-0.8,2.3-0.8c0.3,0,0.6,0,0.8,0.1
			C168.9,32.6,168.9,35.7,168.9,35.7z"/>
		<path class="st2" d="M183.2,39.4c0,0.6,0,1.1-0.1,1.5h-9.6c0,1.4,0.5,2.5,1.4,3.3c0.8,0.7,1.9,1,3.1,1c1.4,0,2.7-0.2,3.9-0.7
			l0.5,2.2c-1.4,0.6-3,0.9-4.8,0.9c-2.2,0-4-0.7-5.3-2c-1.3-1.3-1.9-3.1-1.9-5.3c0-2.2,0.6-4,1.8-5.4c1.2-1.5,2.9-2.3,5-2.3
			c2.1,0,3.6,0.8,4.7,2.3C182.8,36.1,183.2,37.6,183.2,39.4z M180.2,38.5c0-0.9-0.2-1.8-0.6-2.5c-0.6-0.9-1.4-1.3-2.5-1.3
			c-1,0-1.9,0.4-2.5,1.3c-0.5,0.7-0.8,1.5-0.9,2.5L180.2,38.5L180.2,38.5z"/>
	</g>
	<g>
		<g>
			<path class="st2" d="M73.6,15c0,1.8-0.5,3.1-1.6,4c-1,0.8-2.4,1.2-4.2,1.2c-0.9,0-1.7,0-2.3-0.1v-9.6c0.8-0.1,1.7-0.2,2.7-0.2
				c1.7,0,3,0.4,3.9,1.1C73.1,12.2,73.6,13.4,73.6,15z M71.9,15.1c0-1.1-0.3-2-0.9-2.6c-0.6-0.6-1.5-0.9-2.7-0.9
				c-0.5,0-0.9,0-1.3,0.1v7.3c0.2,0,0.5,0,1.1,0c1.2,0,2.1-0.3,2.8-1C71.6,17.3,71.9,16.3,71.9,15.1z"/>
			<path class="st2" d="M82.4,16.6c0,1.1-0.3,2-0.9,2.7c-0.7,0.7-1.5,1.1-2.6,1.1c-1,0-1.9-0.3-2.5-1c-0.6-0.7-0.9-1.6-0.9-2.6
				c0-1.1,0.3-2,1-2.7c0.6-0.7,1.5-1,2.6-1c1,0,1.9,0.3,2.5,1C82.1,14.6,82.4,15.5,82.4,16.6z M80.7,16.6c0-0.7-0.1-1.2-0.4-1.7
				c-0.3-0.6-0.8-0.8-1.4-0.8c-0.6,0-1.1,0.3-1.4,0.8c-0.3,0.5-0.4,1-0.4,1.7c0,0.7,0.1,1.2,0.4,1.7c0.3,0.6,0.8,0.8,1.4,0.8
				c0.6,0,1.1-0.3,1.4-0.9C80.6,17.8,80.7,17.3,80.7,16.6z"/>
			<path class="st2" d="M94.1,13.1l-2.2,7.1h-1.4l-0.9-3.1c-0.2-0.8-0.4-1.5-0.6-2.3h0c-0.1,0.8-0.3,1.5-0.6,2.3l-1,3.1H86l-2.1-7.1
				h1.6l0.8,3.4c0.2,0.8,0.4,1.6,0.5,2.3h0c0.1-0.6,0.3-1.3,0.6-2.3l1-3.4h1.3l1,3.3c0.2,0.8,0.4,1.6,0.6,2.3h0
				c0.1-0.7,0.3-1.5,0.5-2.3l0.9-3.3L94.1,13.1L94.1,13.1z"/>
			<path class="st2" d="M102.3,20.1h-1.6v-4.1c0-1.2-0.5-1.9-1.4-1.9c-0.5,0-0.8,0.2-1.1,0.5c-0.3,0.3-0.4,0.7-0.4,1.2v4.2h-1.6v-5
				c0-0.6,0-1.3-0.1-2h1.4l0.1,1.1h0c0.2-0.3,0.5-0.6,0.8-0.9c0.4-0.3,0.9-0.4,1.4-0.4c0.7,0,1.2,0.2,1.6,0.6
				c0.5,0.5,0.8,1.3,0.8,2.3V20.1z"/>
			<path class="st2" d="M106.6,20.1h-1.6V9.8h1.6V20.1z"/>
			<path class="st2" d="M115.9,16.6c0,1.1-0.3,2-0.9,2.7c-0.7,0.7-1.5,1.1-2.6,1.1c-1,0-1.9-0.3-2.5-1c-0.6-0.7-0.9-1.6-0.9-2.6
				c0-1.1,0.3-2,1-2.7c0.6-0.7,1.5-1,2.6-1c1,0,1.9,0.3,2.5,1C115.6,14.6,115.9,15.5,115.9,16.6z M114.3,16.6c0-0.7-0.1-1.2-0.4-1.7
				c-0.3-0.6-0.8-0.8-1.4-0.8c-0.6,0-1.1,0.3-1.4,0.8c-0.3,0.5-0.4,1-0.4,1.7c0,0.7,0.1,1.2,0.4,1.7c0.3,0.6,0.8,0.8,1.4,0.8
				c0.6,0,1.1-0.3,1.4-0.9C114.1,17.8,114.3,17.3,114.3,16.6z"/>
			<path class="st2" d="M123.5,20.1h-1.4l-0.1-0.8h0c-0.5,0.6-1.2,1-2.1,1c-0.7,0-1.2-0.2-1.6-0.6c-0.4-0.4-0.6-0.9-0.6-1.4
				c0-0.9,0.4-1.5,1.1-2c0.7-0.5,1.7-0.7,3-0.7v-0.1c0-0.9-0.5-1.4-1.5-1.4c-0.7,0-1.3,0.2-1.8,0.5l-0.3-1c0.7-0.4,1.5-0.6,2.4-0.6
				c1.8,0,2.8,1,2.8,2.9v2.6C123.4,19.2,123.4,19.7,123.5,20.1z M121.9,17.7v-1.1c-1.7,0-2.6,0.4-2.6,1.4c0,0.4,0.1,0.6,0.3,0.8
				s0.5,0.3,0.8,0.3c0.3,0,0.7-0.1,1-0.3c0.3-0.2,0.5-0.5,0.5-0.8C121.9,17.9,121.9,17.8,121.9,17.7z"/>
			<path class="st2" d="M132.4,20.1H131L131,19h0c-0.4,0.9-1.2,1.3-2.3,1.3c-0.9,0-1.6-0.3-2.1-1c-0.6-0.7-0.8-1.5-0.8-2.6
				c0-1.1,0.3-2.1,0.9-2.8c0.6-0.7,1.3-1,2.2-1c0.9,0,1.6,0.3,2,1h0V9.8h1.6v8.4C132.4,18.9,132.4,19.6,132.4,20.1z M130.8,17.2V16
				c0-0.2,0-0.4,0-0.5c-0.1-0.4-0.3-0.7-0.6-1c-0.3-0.3-0.6-0.4-1.1-0.4c-0.6,0-1,0.2-1.4,0.7c-0.3,0.5-0.5,1.1-0.5,1.8
				c0,0.7,0.2,1.3,0.5,1.7c0.3,0.5,0.8,0.7,1.4,0.7c0.5,0,0.9-0.2,1.2-0.6C130.6,18.1,130.8,17.7,130.8,17.2z"/>
			<path class="st2" d="M145.9,16.6c0,1.1-0.3,2-0.9,2.7c-0.7,0.7-1.5,1.1-2.6,1.1c-1,0-1.9-0.3-2.5-1c-0.6-0.7-0.9-1.6-0.9-2.6
				c0-1.1,0.3-2,1-2.7c0.6-0.7,1.5-1,2.6-1c1,0,1.9,0.3,2.5,1C145.6,14.6,145.9,15.5,145.9,16.6z M144.2,16.6c0-0.7-0.1-1.2-0.4-1.7
				c-0.3-0.6-0.8-0.8-1.4-0.8c-0.6,0-1.1,0.3-1.4,0.8c-0.3,0.5-0.4,1-0.4,1.7c0,0.7,0.1,1.2,0.4,1.7c0.3,0.6,0.8,0.8,1.4,0.8
				c0.6,0,1.1-0.3,1.4-0.9C144.1,17.8,144.2,17.3,144.2,16.6z"/>
			<path class="st2" d="M154.3,20.1h-1.6v-4.1c0-1.2-0.5-1.9-1.4-1.9c-0.5,0-0.8,0.2-1.1,0.5c-0.3,0.3-0.4,0.7-0.4,1.2v4.2h-1.6v-5
				c0-0.6,0-1.3-0.1-2h1.4l0.1,1.1h0c0.2-0.3,0.5-0.6,0.8-0.9c0.4-0.3,0.9-0.4,1.4-0.4c0.7,0,1.2,0.2,1.6,0.6
				c0.5,0.5,0.8,1.3,0.8,2.3V20.1z"/>
			<path class="st2" d="M164.9,14.3h-1.7v3.4c0,0.9,0.3,1.3,0.9,1.3c0.3,0,0.5,0,0.7-0.1l0,1.2c-0.3,0.1-0.7,0.2-1.2,0.2
				c-0.6,0-1.1-0.2-1.5-0.6c-0.4-0.4-0.5-1-0.5-1.9v-3.6h-1v-1.2h1v-1.3l1.5-0.5v1.8h1.7L164.9,14.3L164.9,14.3z"/>
			<path class="st2" d="M173.2,20.1h-1.6v-4c0-1.3-0.5-1.9-1.4-1.9c-0.7,0-1.2,0.4-1.5,1.1c0,0.2-0.1,0.3-0.1,0.6v4.3h-1.6V9.8h1.6
				v4.3h0c0.5-0.8,1.2-1.2,2.1-1.2c0.7,0,1.2,0.2,1.6,0.6c0.5,0.5,0.8,1.3,0.8,2.4C173.2,15.9,173.2,20.1,173.2,20.1z"/>
			<path class="st2" d="M181.8,16.3c0,0.3,0,0.5-0.1,0.7H177c0,0.7,0.2,1.2,0.7,1.6c0.4,0.3,0.9,0.5,1.5,0.5c0.7,0,1.3-0.1,1.9-0.3
				l0.2,1.1c-0.7,0.3-1.5,0.4-2.4,0.4c-1.1,0-2-0.3-2.6-1c-0.6-0.6-0.9-1.5-0.9-2.6c0-1.1,0.3-2,0.9-2.7c0.6-0.8,1.4-1.1,2.5-1.1
				c1,0,1.8,0.4,2.3,1.1C181.6,14.7,181.8,15.4,181.8,16.3z M180.3,15.9c0-0.5-0.1-0.9-0.3-1.2c-0.3-0.4-0.7-0.7-1.3-0.7
				c-0.5,0-0.9,0.2-1.3,0.6c-0.3,0.3-0.4,0.7-0.5,1.2C177,15.9,180.3,15.9,180.3,15.9z"/>
		</g>
	</g>
</g>
</svg>
